<svg width="256" height="256" viewBox="0 0 256 256" fill="none" xmlns="http://www.w3.org/2000/svg">
<g clip-path="url(#clip0_26533_165733)">
<path d="M98.3062 36.8659L120.578 93.186L96.0022 155.138C91.1382 167.17 79.6182 175.106 66.5622 175.106H49.4102C48.3862 175.106 47.3622 174.338 46.8502 173.314L0.258186 56.3219C-0.253814 55.0419 0.770186 53.5059 2.30619 53.5059H44.8022C45.8262 53.5059 46.5942 54.0179 47.1062 55.0419L67.8422 114.946C68.3542 115.97 69.8902 115.97 70.1462 114.946L97.5382 36.8659C97.5382 36.8659 98.0502 35.5859 99.3302 35.5859C100.61 35.5859 99.0742 36.6099 99.0742 36.6099L98.3062 37.1219" fill="#28293D"/>
<path d="M225.541 18.1758C216.837 18.1758 209.157 23.5518 206.085 31.7438L175.365 114.944C174.853 115.968 173.317 115.968 173.061 114.944L150.789 50.9438C147.461 41.7278 138.757 35.5838 129.029 35.5838H99.0767C98.3087 35.5838 98.0527 35.8398 98.0527 35.8398L98.3087 36.6078L120.581 93.1838L152.325 173.568C152.581 174.592 153.605 175.104 154.629 175.104H172.037C184.837 175.104 196.613 167.168 201.477 155.392L256.005 20.4798C256.517 19.4558 255.749 18.1758 254.469 18.1758H225.541Z" fill="url(#paint0_linear_26533_165733)"/>
<path d="M40.7038 237.311H32.2558L21.7598 205.055H32.5118L36.8638 222.207L43.0078 205.055H50.4318L56.3198 222.207L60.9278 205.055H71.4238L60.6718 237.311H52.4798L46.5918 220.415L40.7038 237.311Z" fill="#28293D"/>
<path d="M82.4311 237.822C78.8471 237.822 75.5191 236.798 72.9591 234.494C70.3991 232.19 69.1191 229.118 69.1191 225.278C69.1191 221.694 70.3991 218.878 72.7031 216.318C75.0071 214.014 78.0791 212.734 81.9191 212.734C85.2471 212.734 87.8071 213.758 90.1111 216.062C92.4151 218.366 93.4391 221.182 93.4391 225.022V227.326H78.3351C78.5911 228.35 79.3591 228.862 80.6391 229.374C81.6631 229.886 83.1991 230.142 84.4791 230.142C87.2951 230.142 89.8551 229.63 92.1591 228.35V235.518C90.1111 237.054 86.7831 237.822 82.4311 237.822ZM78.3351 222.718H84.4791C84.4791 221.694 84.2231 220.926 83.4551 220.158C82.9431 219.646 82.1751 219.134 81.4071 219.134C79.6151 219.39 78.5911 220.414 78.3351 222.718Z" fill="#28293D"/>
<path d="M96.7695 237.055V205.055H106.498V216.063C108.034 214.015 110.082 212.735 112.898 212.735C115.97 212.735 118.274 214.015 120.322 216.319C122.37 218.623 123.394 221.695 123.394 225.279C123.394 228.863 122.37 231.935 120.322 234.239C118.274 236.543 115.714 237.823 112.898 237.823C110.082 237.823 107.778 236.799 106.498 234.495V237.055H96.7695ZM106.498 222.719V228.095C107.266 229.119 108.29 229.887 110.082 229.887C111.362 229.887 112.13 229.375 112.898 228.607C113.666 227.839 113.922 226.815 113.922 225.535C113.922 224.255 113.666 223.231 112.898 222.463C112.13 221.695 111.362 221.183 110.082 221.183C108.29 220.927 107.01 221.439 106.498 222.719Z" fill="#28293D"/>
<path d="M141.569 237.312H132.865L123.137 213.504H133.377L137.473 225.792L141.569 213.504H151.553L141.569 237.312Z" fill="#28293D"/>
<path d="M162.304 210.69C161.28 211.97 160 212.482 158.464 212.482C156.928 212.482 155.648 211.97 154.624 210.946C153.6 209.922 153.088 208.642 153.088 207.106C153.088 205.57 153.6 204.29 154.624 203.266C155.648 202.242 156.928 201.73 158.464 201.73C160 201.73 161.28 202.242 162.304 203.266C163.328 204.29 163.84 205.57 163.84 207.106C163.84 208.386 163.328 209.666 162.304 210.69ZM163.328 237.058H153.6V213.25H163.328V237.058Z" fill="#28293D"/>
<path d="M189.694 237.056H167.166V230.656L176.382 221.184H167.422V213.504H188.926V220.16L179.454 229.632H189.694V237.056Z" fill="#28293D"/>
<path d="M202.241 210.689C201.217 211.713 199.937 212.225 198.401 212.225C196.865 212.225 195.585 211.713 194.561 210.689C193.537 209.665 193.025 208.385 193.025 206.849C193.025 205.313 193.537 204.033 194.561 203.009C195.585 201.985 196.865 201.473 198.401 201.473C199.937 201.473 201.217 201.985 202.241 203.009C203.265 204.033 203.777 205.313 203.777 206.849C203.777 208.385 203.265 209.665 202.241 210.689ZM203.009 237.057H193.281V213.249H203.009V237.057Z" fill="#28293D"/>
<path d="M219.906 237.822C216.066 237.822 212.738 236.542 210.178 234.238C207.618 231.934 206.338 228.862 206.338 225.278C206.338 221.694 207.618 218.622 210.178 216.318C212.738 214.014 216.066 212.734 219.906 212.734C223.746 212.734 227.074 214.014 229.634 216.318C232.194 218.622 233.474 221.694 233.474 225.278C233.474 228.862 232.194 231.934 229.634 234.238C227.074 236.542 223.746 237.822 219.906 237.822ZM215.81 225.278C215.81 226.558 216.066 227.582 216.834 228.35C217.602 229.118 218.626 229.63 219.65 229.63C220.674 229.63 221.698 229.118 222.466 228.35C223.234 227.582 223.49 226.558 223.49 225.278C223.49 223.998 223.234 222.974 222.466 222.206C221.698 221.438 220.674 220.926 219.65 220.926C218.626 220.926 217.602 221.438 216.834 222.206C216.322 222.974 215.81 223.998 215.81 225.278Z" fill="#28293D"/>
</g>
<defs>
<linearGradient id="paint0_linear_26533_165733" x1="141.728" y1="5.78512" x2="233.897" y2="139.392" gradientUnits="userSpaceOnUse">
<stop stop-color="#00FABB"/>
<stop offset="0.1513" stop-color="#11E3C7"/>
<stop offset="0.4671" stop-color="#3CA8E4"/>
<stop offset="0.587" stop-color="#4D90F0"/>
<stop offset="0.6764" stop-color="#568AF0"/>
<stop offset="0.8214" stop-color="#6E79F0"/>
<stop offset="1" stop-color="#945FF0"/>
</linearGradient>
<clipPath id="clip0_26533_165733">
<rect width="256" height="256" fill="white"/>
</clipPath>
</defs>
</svg>
